<?xml version="1.0" encoding="UTF-8"?>
<!DOCTYPE svg PUBLIC "-//W3C//DTD SVG 1.1//EN" "http://www.w3.org/Graphics/SVG/1.1/DTD/svg11.dtd">
<!-- Creator: CorelDRAW -->
<svg xmlns="http://www.w3.org/2000/svg" xml:space="preserve" width="500px" height="500px" style="shape-rendering:geometricPrecision; text-rendering:geometricPrecision; image-rendering:optimizeQuality; fill-rule:evenodd; clip-rule:evenodd"
viewBox="0 0 500 500"
 xmlns:xlink="http://www.w3.org/1999/xlink">
 <defs>
  <style type="text/css">
   <![CDATA[
    .str0 {stroke:#99FF00;stroke-width:6.66667}
    .fil2 {fill:none}
    .fil1 {fill:black}
    .fil0 {fill:#99FF00}
    .fil3 {fill:black;fill-rule:nonzero}
   ]]>
  </style>
 </defs>
 <g id="Capa_x0020_1">
  <metadata id="CorelCorpID_0Corel-Layer"/>
  <g id="_34006120">
   <path id="_230493344" class="fil0" d="M102.087 181.362l0 21.655c0,31.6837 16.0593,78.3867 28.221,98.217 14.2647,23.2593 34.9723,54.9403 55.475,70.963 19.9503,15.5913 51.1363,46.1303 86.7577,29.914 24.0033,-10.9273 55.1093,-37.222 69.849,-57.2873 19.3813,-26.3837 34.1397,-45.4977 45.8413,-80.5963 10.2527,-30.752 17.775,-72.589 8.36633,-109.83 -14.7447,-58.363 -68.4577,-113.444 -140.13,-113.444l-11.1767 0c-73.788,0 -143.203,67.5983 -143.203,140.409z"/>
   <path id="_34007704" class="fil1" d="M118.853 182.759l0 24.4493c0,18.419 9.94267,48.7077 15.5813,62.6563 6.85233,16.9493 17.609,36.8737 27.918,50.3197 5.45967,7.121 11.3743,15.3443 17.4333,21.686 6.74267,7.057 12.911,12.7607 19.5713,19.5477 6.88733,7.01833 37.3697,28.811 49.4267,28.811 33.2323,0 79.435,-52.1033 94.1697,-74.1817 21.3513,-31.993 41.3497,-73.9263 41.3497,-127.001 0,-37.496 -18.3407,-71.782 -37.197,-90.6383 -18.6643,-18.664 -51.1993,-40.6897 -87.844,-40.6897l-20.258 0c-13.6097,0 -37.5703,8.65833 -47.2663,13.508 -13.8997,6.952 -24.935,15.7343 -35.3367,26.1357 -17.756,17.7563 -37.548,50.2907 -37.548,85.3973z"/>
   <path id="_34006384" class="fil0" d="M263.453 302.211l0 12.574c0,12.022 10.33,20.9567 23.0523,20.9567 18.1473,0 39.2807,-22.3823 47.5017,-33.5307 9.85833,-13.3687 22.3537,-36.351 22.3537,-59.377 0,-14.8917 -7.069,-27.942 -21.6553,-27.942l-2.09567 0c-29.2457,0 -69.1567,55.383 -69.1567,87.319z"/>
   <path id="_34006360" class="fil0" d="M146.096 242.135l0 2.096c0,35.399 38.3917,91.5103 69.855,91.5103 14.075,0 23.0523,-10.137 23.0523,-23.751l0 -7.684c0,-34.7907 -38.736,-89.4147 -71.951,-89.4147 -14.0657,0 -20.9563,12.7697 -20.9563,27.2433z"/>
   <path id="_34006216" class="fil2 str0" d="M246.774 144.765c0,-4.36267 3.31567,-7.89933 7.40567,-7.89933 4.09,0 7.40567,3.53667 7.40567,7.89933 0,8.72533 -6.63133,15.7987 -14.8113,15.7987 -8.18,0 -14.8113,-7.07333 -14.8113,-15.7987 0,-13.0883 9.947,-23.6983 22.217,-23.6983 12.2703,0 22.2173,10.61 22.2173,23.6983 0,17.451 -13.2627,31.5977 -29.623,31.5977 -16.3603,0 -29.6227,-14.1467 -29.6227,-31.5977 0,-21.8137 16.578,-39.4973 37.0283,-39.4973 20.4503,0 37.029,17.6837 37.029,39.4973 0,26.1763 -19.8943,47.3967 -44.4347,47.3967 -24.5403,0 -44.4343,-21.2203 -44.4343,-47.3967 0,-30.5393 23.2097,-55.296 51.84,-55.296 28.6307,0 51.8403,24.7567 51.8403,55.296 0,34.9017 -26.5253,63.1953 -59.246,63.1953 -32.7203,0 -59.2457,-28.2937 -59.2457,-63.1953"/>
   <path id="_34006192" class="fil3" d="M24.5827 446.136l6.034 0 -2.92433 -8.554 -3.10967 8.554zm-13.19 8.38567l10.541 -24.3203 11.9553 0 9.83367 24.3203 -10.21 0 -0.808 -2.38533 -10.3447 0 -0.87 2.38533 -10.0973 0zm33.907 0l0 -24.517 8.582 0 0 24.517 -8.582 0zm13.6 0l0 -18.859 8.582 0 0 18.859 -8.582 0zm0 -20.4027l0 -4.78767 8.582 0 0 4.78767 -8.582 0zm20.6723 8.89067l9.99633 0c-0.118,-1.044 -0.589333,-1.84667 -1.41433,-2.419 -0.819667,-0.567 -1.92533,-0.853333 -3.306,-0.853333 -1.48733,0 -2.68867,0.280667 -3.59233,0.836333 -0.903667,0.561333 -1.465,1.37533 -1.68367,2.436zm18.483 5.759c-0.64,2.09333 -2.11033,3.682 -4.423,4.765 -2.31233,1.08333 -5.394,1.628 -9.24433,1.628 -4.27133,0 -7.57733,-0.875667 -9.91233,-2.63267 -2.335,-1.751 -3.50233,-4.232 -3.50233,-7.43133 0,-3.21033 1.16733,-5.697 3.50233,-7.44833 2.335,-1.75667 5.641,-2.63233 9.91233,-2.63233 4.54067,0 7.98133,0.988 10.322,2.96933 2.34067,1.98133 3.508,4.88867 3.508,8.72233l0 0.331 -18.2193 0c0,1.02167 0.426667,1.80733 1.28533,2.36867 0.853333,0.555667 2.05433,0.836333 3.598,0.836333 1.02167,0 1.869,-0.123333 2.54833,-0.376 0.679,-0.252667 1.16733,-0.617333 1.46467,-1.1l9.16033 0zm3.33967 5.753l0 -18.859 8.41933 0 0 1.95867c1.128,-0.791333 2.30133,-1.375 3.51933,-1.75667 1.21767,-0.376 2.52567,-0.567 3.92867,-0.567 2.76167,0 4.78233,0.701667 6.062,2.105 1.274,1.403 1.914,3.63133 1.914,6.679l0 10.44 -8.41933 0 0 -8.86267c0,-1.40333 -0.224333,-2.36867 -0.673333,-2.90167 -0.449,-0.533333 -1.235,-0.797333 -2.352,-0.797333 -1.24033,0 -2.21133,0.297667 -2.91867,0.887 -0.707,0.595 -1.06067,1.40867 -1.06067,2.45267l0 9.222 -8.41933 0zm59.3447 -19.0893l-5.164 0 0 5.248 5.164 0c1.532,0 2.593,-0.196333 3.17667,-0.583667 0.589333,-0.387333 0.881333,-1.06633 0.881333,-2.03167 0,-0.976667 -0.292,-1.66167 -0.881333,-2.049 -0.583667,-0.387 -1.64467,-0.583667 -3.17667,-0.583667zm-14.588 19.0893l0 -24.3203 18.1857 0c3.44067,0 6.09567,0.690333 7.96467,2.06533 1.869,1.37533 2.80633,3.31733 2.80633,5.82633 0,2.50333 -0.937333,4.43967 -2.80633,5.81467 -1.869,1.37533 -4.524,2.06567 -7.96467,2.06567l-8.76167 0 0 8.54833 -9.424 0zm31.8137 0l0 -18.859 8.352 0 0.101 1.448c0.634333,-0.64 1.392,-1.117 2.26767,-1.44267 0.875667,-0.319667 1.86333,-0.482667 2.96367,-0.482667 2.16633,0 3.76033,0.589333 4.77633,1.768 1.016,1.179 1.521,3.03667 1.521,5.57933l0 1.64467 -7.448 0 0 -0.129333c0,-0.954 -0.163,-1.667 -0.494,-2.13267 -0.331333,-0.466 -0.830667,-0.696 -1.49867,-0.696 -0.712667,0 -1.22367,0.269333 -1.521,0.802667 -0.303333,0.538667 -0.454667,1.45933 -0.454667,2.76133l0 9.73833 -8.56533 0zm30.6517 -9.424c0,1.29667 0.393,2.32367 1.173,3.09267 0.786,0.769 1.841,1.15067 3.17133,1.15067 1.32467,0 2.38,-0.381667 3.16567,-1.15067 0.780333,-0.769 1.173,-1.796 1.173,-3.09267 0,-1.302 -0.392667,-2.34033 -1.173,-3.09833 -0.785667,-0.763333 -1.841,-1.145 -3.16567,-1.145 -1.33033,0 -2.38533,0.381667 -3.17133,1.145 -0.78,0.758 -1.173,1.79633 -1.173,3.09833zm-8.89633 0c0,-3.19933 1.15633,-5.68 3.46867,-7.44267 2.31267,-1.75667 5.57933,-2.638 9.8,-2.638 4.23233,0 7.499,0.875667 9.79433,2.63233 2.29567,1.75133 3.44633,4.238 3.44633,7.44833 0,3.19933 -1.15067,5.68033 -3.44633,7.43133 -2.29533,1.757 -5.562,2.63267 -9.79433,2.63267 -4.22067,0 -7.48733,-0.875667 -9.8,-2.63267 -2.31233,-1.751 -3.46867,-4.232 -3.46867,-7.43133zm30.2533 -10.9787l0 -4.78767 8.48633 0 0 4.78767 -8.48633 0zm-3.57 19.993l1.25167 0c0.920667,0 1.538,-0.196667 1.85233,-0.589333 0.308667,-0.398667 0.466,-1.521 0.466,-3.37333l0 -14.4867 8.48633 0 0 18.483c0,1.53233 -0.117667,2.61567 -0.353667,3.244 -0.235667,0.634333 -0.645333,1.19 -1.22333,1.66733 -0.572667,0.493667 -1.392,0.869667 -2.45867,1.12233 -1.072,0.252667 -2.35167,0.376 -3.84467,0.376 -0.690333,0 -1.38067,-0.0336667 -2.071,-0.106667 -0.690333,-0.0726667 -1.392,-0.174 -2.105,-0.303l0 -6.03367zm23.8827 -11.1023l9.99633 0c-0.118,-1.044 -0.589333,-1.84667 -1.41433,-2.419 -0.819667,-0.567 -1.92533,-0.853333 -3.306,-0.853333 -1.48733,0 -2.68867,0.280667 -3.59233,0.836333 -0.903667,0.561333 -1.465,1.37533 -1.68367,2.436zm18.483 5.759c-0.64,2.09333 -2.11033,3.682 -4.423,4.765 -2.31233,1.08333 -5.394,1.628 -9.24433,1.628 -4.27133,0 -7.57733,-0.875667 -9.91233,-2.63267 -2.335,-1.751 -3.50233,-4.232 -3.50233,-7.43133 0,-3.21033 1.16733,-5.697 3.50233,-7.44833 2.335,-1.75667 5.641,-2.63233 9.91233,-2.63233 4.54067,0 7.98133,0.988 10.322,2.96933 2.34067,1.98133 3.508,4.88867 3.508,8.72233l0 0.331 -18.2193 0c0,1.02167 0.426667,1.80733 1.28533,2.36867 0.853333,0.555667 2.05433,0.836333 3.598,0.836333 1.02167,0 1.869,-0.123333 2.54833,-0.376 0.679,-0.252667 1.16733,-0.617333 1.46467,-1.1l9.16033 0zm29.1083 -2.537c-0.309,2.969 -1.58867,5.203 -3.83933,6.696 -2.25633,1.48733 -5.46133,2.234 -9.63167,2.234 -4.305,0 -7.639,-0.875667 -9.99067,-2.63267 -2.352,-1.751 -3.525,-4.232 -3.525,-7.43133 0,-3.188 1.173,-5.669 3.525,-7.43133 2.35167,-1.768 5.68567,-2.64933 9.99067,-2.64933 4.002,0 7.12267,0.685 9.36233,2.05433 2.234,1.36967 3.54733,3.407 3.94567,6.10133l-9.031 0c-0.342333,-0.864667 -0.853,-1.51567 -1.53233,-1.94767 -0.679,-0.432333 -1.52667,-0.651333 -2.548,-0.651333 -1.49867,0 -2.67733,0.398667 -3.53067,1.19 -0.858667,0.797 -1.28533,1.89733 -1.28533,3.30033 0,1.35833 0.415333,2.44167 1.25167,3.23867 0.830667,0.802667 1.95333,1.201 3.36767,1.201 1.173,0 2.161,-0.291667 2.96933,-0.881 0.802667,-0.583667 1.30767,-1.381 1.504,-2.391l8.99767 0zm16.0133 8.262c-0.735333,0.117667 -1.448,0.207667 -2.13867,0.269333 -0.690333,0.0616667 -1.358,0.0896667 -2.00367,0.0896667 -1.044,0 -1.98133,-0.0616667 -2.812,-0.190667 -0.836333,-0.123333 -1.58267,-0.32 -2.23967,-0.583667 -0.931667,-0.381667 -1.58833,-0.943 -1.97,-1.67267 -0.387333,-0.735333 -0.578,-1.93633 -0.578,-3.60333l0 -7.38667 -3.00867 0 0 -5.276 3.00867 0 0 -6.16867 8.48667 0 0 6.16867 3.02533 0 0 5.276 -3.02533 0 0 3.91767c0,1.86367 0.134667,2.99167 0.409667,3.38467 0.275,0.398667 0.825,0.595 1.64433,0.595l1.20133 0 0 5.18067zm45.06 -2.12733c-1.1,0.965333 -2.50333,1.67267 -4.221,2.12167 -1.71733,0.449 -3.856,0.673667 -6.421,0.673667 -5.405,0 -9.48,-1.07767 -12.236,-3.233 -2.75033,-2.15 -4.12533,-5.338 -4.12533,-9.55867 0,-4.23233 1.375,-7.426 4.12533,-9.57567 2.756,-2.15533 6.831,-3.233 12.236,-3.233 4.552,0 8.19467,0.774667 10.9393,2.318 2.73933,1.54367 4.294,3.69333 4.65333,6.44367l-10.3277 0c-0.505333,-0.987667 -1.17333,-1.71733 -1.99833,-2.20033 -0.825,-0.482667 -1.82967,-0.724 -3.00267,-0.724 -1.959,0 -3.53633,0.628667 -4.72067,1.89167 -1.184,1.25733 -1.77367,2.95233 -1.77367,5.07967 0,2.14967 0.584,3.81667 1.75133,5.00667 1.16733,1.18967 2.79533,1.78467 4.88867,1.78467 1.566,0 2.874,-0.286333 3.91233,-0.853 1.044,-0.572667 1.67833,-1.347 1.90833,-2.335l-3.912 0 0 -5.265 13.583 0 0 13.8133 -4.24333 0 -1.016 -2.15533zm26.487 -6.62867c-0.875667,0.437667 -2.37967,0.729667 -4.507,0.87 -0.612,0.0336667 -1.08333,0.0673333 -1.41433,0.101 -1.235,0.112333 -2.077,0.291667 -2.52033,0.544333 -0.443333,0.252667 -0.668,0.64 -0.668,1.16767 0,0.589333 0.264,1.04933 0.797,1.375 0.533333,0.32 1.28533,0.482667 2.262,0.482667 1.85233,0 3.334,-0.370333 4.43967,-1.117 1.106,-0.746333 1.66167,-1.73433 1.66167,-2.96333 0,-0.129333 0,-0.224667 -0.00566667,-0.286333 -0.00566667,-0.0616667 -0.0223333,-0.118 -0.045,-0.174zm0.0336667 6.202c-1.04967,1.10567 -2.318,1.914 -3.80533,2.425 -1.48767,0.510667 -3.36767,0.763333 -5.65233,0.763333 -3.07567,0 -5.39367,-0.516667 -6.93733,-1.54367 -1.54367,-1.03267 -2.318,-2.582 -2.318,-4.65867 0,-0.679 0.0896667,-1.30767 0.263667,-1.88033 0.174,-0.578 0.421,-1.072 0.741,-1.48733 0.645333,-0.802667 1.50967,-1.39767 2.58733,-1.785 1.08333,-0.392667 3.11533,-0.684667 6.11233,-0.881 0.982333,-0.0673333 2.26767,-0.123667 3.845,-0.179667 3.18233,-0.134667 4.77067,-0.572667 4.77067,-1.33033 0,-0.516333 -0.336667,-0.926 -1.00467,-1.24033 -0.667667,-0.308667 -1.577,-0.466 -2.72767,-0.466 -1.493,0 -2.554,0.140333 -3.19367,0.426667 -0.634333,0.286333 -1.00467,0.769 -1.117,1.45933l-8.7 0c0.174,-2.29 1.246,-3.929 3.21633,-4.92233 1.96433,-0.993667 5.20867,-1.48767 9.727,-1.48767 2.464,0 4.54633,0.174 6.23033,0.516333 1.68933,0.348 2.969,0.859 3.83333,1.538 0.943,0.735333 1.611,1.61667 2.00933,2.655 0.393,1.03267 0.589333,2.51433 0.589333,4.44533l0 7.28533c0,0.701667 0.062,1.246 0.191,1.62233 0.123333,0.376 0.336667,0.679 0.645333,0.898l0 0.409667 -8.76133 0c-0.157333,-0.370333 -0.280667,-0.774667 -0.370667,-1.20667 -0.0953333,-0.438 -0.151333,-0.892667 -0.174,-1.37533zm12.8477 2.582l0 -18.859 8.352 0 0 1.95867c1.117,-0.802667 2.262,-1.392 3.435,-1.76233 1.173,-0.376 2.44167,-0.561333 3.8,-0.561333 1.52667,0 2.80067,0.269333 3.83333,0.814 1.033,0.544333 1.914,1.403 2.64933,2.57633 1.24033,-1.162 2.537,-2.02067 3.89533,-2.56533 1.35833,-0.55 2.868,-0.825 4.524,-0.825 2.666,0 4.61367,0.701667 5.854,2.105 1.24067,1.403 1.858,3.63133 1.858,6.679l0 10.44 -8.31833 0 0 -8.86267c0,-1.38067 -0.218667,-2.34067 -0.656667,-2.885 -0.437667,-0.544333 -1.18433,-0.814 -2.23933,-0.814 -1.18433,0 -2.11067,0.297667 -2.77867,0.887 -0.667667,0.595 -1.00467,1.40867 -1.00467,2.45267l0 9.222 -8.172 0 0 -8.86267c0,-1.38067 -0.219,-2.34067 -0.657,-2.885 -0.437667,-0.544333 -1.18967,-0.814 -2.25633,-0.814 -1.173,0 -2.09333,0.297667 -2.76133,0.887 -0.668,0.595 -1.00467,1.40867 -1.00467,2.45267l0 9.222 -8.352 0zm49.9543 -11.512l9.99633 0c-0.118,-1.044 -0.589333,-1.84667 -1.41433,-2.419 -0.819667,-0.567 -1.92533,-0.853333 -3.306,-0.853333 -1.48733,0 -2.68867,0.280667 -3.59233,0.836333 -0.903667,0.561333 -1.465,1.37533 -1.68367,2.436zm18.483 5.759c-0.64,2.09333 -2.11033,3.682 -4.423,4.765 -2.31233,1.08333 -5.394,1.628 -9.24433,1.628 -4.27133,0 -7.57733,-0.875667 -9.91233,-2.63267 -2.335,-1.751 -3.50233,-4.232 -3.50233,-7.43133 0,-3.21033 1.16733,-5.697 3.50233,-7.44833 2.335,-1.75667 5.641,-2.63233 9.91233,-2.63233 4.54067,0 7.98133,0.988 10.322,2.96933 2.34067,1.98133 3.508,4.88867 3.508,8.72233l0 0.331 -18.2193 0c0,1.02167 0.426667,1.80733 1.28533,2.36867 0.853333,0.555667 2.05433,0.836333 3.598,0.836333 1.02167,0 1.869,-0.123333 2.54833,-0.376 0.679,-0.252667 1.16733,-0.617333 1.46467,-1.1l9.16033 0zm1.95333 -0.264l10.277 -0.0166667c0.0673333,0.656667 0.353667,1.13367 0.864333,1.42 0.511,0.291667 1.336,0.437667 2.47533,0.437667 0.954333,0 1.67833,-0.106667 2.16667,-0.32 0.488333,-0.213333 0.729667,-0.533 0.729667,-0.965333 0,-0.741 -1.27967,-1.229 -3.83367,-1.45933 -0.505,-0.056 -0.886667,-0.0953333 -1.15067,-0.117667 -0.0223333,0 -0.0446667,0 -0.0673333,0 -4.11967,-0.404333 -6.90367,-0.932 -8.352,-1.57733 -0.847333,-0.370333 -1.493,-0.959667 -1.94733,-1.76233 -0.454667,-0.797 -0.685,-1.74 -0.685,-2.829 0,-2.17767 0.999,-3.77733 2.99167,-4.782 1.99833,-1.01033 5.175,-1.51567 9.542,-1.51567 4.11967,0 7.19,0.516333 9.19933,1.54367 2.015,1.03267 3.087,2.62667 3.216,4.78767l-9.68767 0c-0.056,-0.634333 -0.348,-1.09433 -0.881333,-1.38067 -0.527333,-0.286333 -1.38067,-0.426667 -2.55367,-0.426667 -0.999,0 -1.72867,0.106667 -2.19467,0.32 -0.466,0.213333 -0.701667,0.544333 -0.701667,0.993333 0,0.724 1.09467,1.173 3.28933,1.347 0.46,0.045 0.813667,0.0786667 1.055,0.101333 0.174,0.011 0.449,0.0336667 0.819667,0.0673333 4.41733,0.392667 6.99333,0.718333 7.72867,0.971 1.44833,0.510667 2.464,1.145 3.059,1.897 0.589333,0.752 0.887,1.77933 0.887,3.08133 0,2.41367 -1.061,4.15367 -3.18267,5.23133 -2.12167,1.072 -5.596,1.611 -10.434,1.611 -4.294,0 -7.44833,-0.533333 -9.46333,-1.60533 -2.00933,-1.06667 -3.06467,-2.75033 -3.16567,-5.05167z"/>
  </g>
 </g>
</svg>
