<?xml version="1.0" encoding="UTF-8"?>
<!DOCTYPE svg PUBLIC "-//W3C//DTD SVG 1.1//EN" "http://www.w3.org/Graphics/SVG/1.1/DTD/svg11.dtd">
<!-- Creator: CorelDRAW -->
<svg xmlns="http://www.w3.org/2000/svg" xml:space="preserve" width="100%" height="100%" style="shape-rendering:geometricPrecision; text-rendering:geometricPrecision; image-rendering:optimizeQuality; fill-rule:evenodd; clip-rule:evenodd"
viewBox="0 0 5.08 8.89"
 xmlns:xlink="http://www.w3.org/1999/xlink">
 <defs>
  <style type="text/css">
   <![CDATA[
    .fil0 {fill:#EAEAEA}
    .fil1 {fill:black;fill-rule:nonzero}
   ]]>
  </style>
 </defs>
 <g id="Capa_x0020_1">
  <metadata id="CorelCorpID_0Corel-Layer"/>
  <path class="fil0" d="M-3.10489 13.3607l0 0zm0.08161 -0.02226l-0.08161 0.02226c-0.02923,-0.10107 -0.17051,-0.09794 -0.07078,0.0654 0.03703,0.06066 0.04238,-0.03475 0.15239,-0.08766z"/>
  <path class="fil1" d="M1.70798 1.57557c0.01025,0.10977 0.01562,0.20295 0.01562,0.28003 0,0.30784 -0.07319,0.46152 -0.22003,0.46152 -0.14002,0 -0.20978,-0.16002 -0.20978,-0.48005l0.00146 -0.1288 0.00146 -0.13026c0,-0.11708 -0.05609,-0.17563 -0.16879,-0.17563 -0.00391,0 -0.01269,0.00049 -0.02586,0.00146l0 0.37761 0.10294 0 0 0.52152 -0.47323 0 0 -0.52152 0.09709 0 0 -0.93084 -0.09709 0 0 -0.49859 0.44298 0c0.16148,0 0.2693,0.03464 0.32345,0.10342 0.05415,0.06928 0.08148,0.20637 0.08148,0.41127 0,0.24832 -0.07562,0.39078 -0.22734,0.42736 -0.00781,0.00196 -0.01855,0.00391 -0.03318,0.00684 0.12977,0.02195 0.19807,0.08049 0.20441,0.17611l0.00732 0.13417 0.00586 0.10684c0.00292,0.05415 0.01805,0.08147 0.04536,0.08147 0.03952,0 0.05904,-0.0644 0.05904,-0.1927l0 -0.03123 0.06683 0zm-0.60592 -0.36443l0.03122 0c0.12246,0 0.18344,-0.0566 0.18344,-0.1688 0,-0.1283 -0.05903,-0.19271 -0.17758,-0.19271 -0.00732,0 -0.02,0.0005 -0.03708,0.00098l0 0.36053zm1.51773 -0.85912l0 0.49859 -0.09855 0 0 0.93181 0.00147 0.15026 -0.01269 0.14587c-0.03269,0.17027 -0.13709,0.25564 -0.31321,0.25564 -0.22197,0 -0.33321,-0.14196 -0.33321,-0.4259l0 -0.14977 0 -0.90791 -0.09561 0 0 -0.49859 0.43468 0 0 0.49859 -0.06586 0 0 0.6591c0,0.18197 0.02829,0.27271 0.0844,0.27271 0.06391,0 0.09562,-0.09415 0.09562,-0.28295l0 -0.64886 -0.06294 0 0 -0.49859 0.3659 0zm0.90059 1.0489l0 0.90205 -0.80644 0 0 -0.52152 0.09709 0 0 -0.93084 -0.09709 0 0 -0.49859 0.47323 0 0 0.49859 -0.10294 0 0 0.93084 0.19173 0 0 -0.38053 0.24442 0zm0.87619 -1.0489l0 0.78058 -0.22588 0 0 -0.28199 -0.19124 0 0 0.35029 0.23856 0 0 0.20002 -0.23856 0 0 0.38053 0.19124 0 0 -0.28442 0.24442 0 0 0.80594 -0.80351 0 0 -0.52152 0.09465 0 0 -0.93084 -0.09465 0 0 -0.49859 0.78497 0zm-2.361 2.9618l0 0.86205 -0.16586 0 0 -0.36346 -0.12587 0 0 0.93083 0.09318 0 0 0.52152 -0.47323 0 0 -0.52152 0.10684 0 0 -0.93083 -0.13123 0 0 0.36346 -0.16587 0 0 -0.86205 0.86204 0zm0.98596 0l0 0.49859 -0.09611 0 0 0.93083 0.09611 0 0 0.52152 -0.41468 0 0 -0.52152 0.04538 0 0 -0.38053 -0.17075 0 0 0.38053 0.04683 0 0 0.52152 -0.41468 0 0 -0.52152 0.09464 0 0 -0.93083 -0.09464 0 0 -0.49859 0.41468 0 0 0.49859 -0.04683 0 0 0.35028 0.17075 0 0 -0.35028 -0.04538 0 0 -0.49859 0.41468 0zm0.89767 0l0 0.78057 -0.22588 0 0 -0.28198 -0.19124 0 0 0.35028 0.23856 0 0 0.20002 -0.23856 0 0 0.38053 0.19124 0 0 -0.28442 0.24442 0 0 0.80594 -0.80351 0 0 -0.52152 0.09465 0 0 -0.93083 -0.09465 0 0 -0.49859 0.78497 0zm-2.09243 2.96179l0 0.49859 -0.09708 0 0 0.93084 0.09708 0 0 0.52152 -0.45322 0 0 -0.52152 0.08294 0 0 -1.065 -0.22295 1.58652 -0.1127 0 -0.24149 -1.57237 0 1.05085 0.09562 0 0 0.52152 -0.39468 0 0 -0.52152 0.09465 0 0 -0.93084 -0.09465 0 0 -0.49859 0.49908 0 0.12831 0.89327 0.13026 -0.89327 0.48883 0zm0.9445 0l0 0.49859 -0.09855 0 0 0.93182 0.00146 0.15026 -0.01268 0.14586c-0.03269,0.17027 -0.13709,0.25564 -0.31321,0.25564 -0.22198,0 -0.33321,-0.14196 -0.33321,-0.42589l0 -0.14978 0 -0.90791 -0.09562 0 0 -0.49859 0.43468 0 0 0.49859 -0.06586 0 0 0.6591c0,0.18197 0.0283,0.27272 0.08441,0.27272 0.0639,0 0.09561,-0.09416 0.09561,-0.28296l0 -0.64886 -0.06293 0 0 -0.49859 0.3659 0zm0.90058 1.0489l0 0.90205 -0.80643 0 0 -0.52152 0.09709 0 0 -0.93084 -0.09709 0 0 -0.49859 0.47323 0 0 0.49859 -0.10295 0 0 0.93084 0.19173 0 0 -0.38053 0.24442 0zm0.8762 -1.0489l0 0.78058 -0.22588 0 0 -0.28199 -0.19124 0 0 0.35029 0.23856 0 0 0.20002 -0.23856 0 0 0.38053 0.19124 0 0 -0.28442 0.24442 0 0 0.80594 -0.80351 0 0 -0.52152 0.09465 0 0 -0.93084 -0.09465 0 0 -0.49859 0.78497 0z"/>
 </g>
</svg>
